# xmcd
#
# Track frame offsets:
# 150
# 29275
# 53290
# 75408
# 103015
# 128594
#
# Disc length: 2032 seconds
#
#
# Revision: 0
# Processed by: cddbd v1.5.2PL0 Copyright (c) Steve Scherf et al.
# Submitted via: FreeRIP 2.944 
#
DISCID=3707ee06
DTITLE=The Saaba Kora Band - Jali - The Saaba Kora Band
DYEAR=1900
DGENRE=Country
TTITLE0=The Lyrics: Bamba Bojang
TTITLE1=The Lyrics: Kunbu Sora
TTITLE2=The Lyrics: Yama Bah
TTITLE3=The Lyrics: Mansa Mam Toolulon
TTITLE4=The Lyrics: Cheddo
TTITLE5=The Lyrics: Giiben Sen
EXTD=
EXTT0=
EXTT1=
EXTT2=
EXTT3=
EXTT4=
EXTT5=
PLAYORDER=
